<svg xmlns="http://www.w3.org/2000/svg" width="50" height="50" viewBox="0 0 50 50">
    <g fill="none" fill-rule="evenodd">
        <path stroke="#EEE" d="M24 48c13.255 0 24-10.745 24-24S37.255 0 24 0 0 10.745 0 24s10.745 24 24 24z" transform="translate(1 1)"/>
        <path fill="#3483FA" fill-rule="nonzero" d="M33 15.75c1.243 0 2.25 1.007 2.25 2.25v12c0 1.243-1.007 2.25-2.25 2.25H15c-1.243 0-2.25-1.007-2.25-2.25V18c0-1.243 1.007-2.25 2.25-2.25h18zm.75 9h-19.5V30c0 .414.336.75.75.75h18c.414 0 .75-.336.75-.75v-5.25zm-13.502 3v1.5h-4.497v-1.5h4.497zm13.502-6h-19.5v1.5h19.5v-1.5zm-.75-4.5H15c-.414 0-.75.336-.75.75v2.25h19.5V18c0-.414-.336-.75-.75-.75z" transform="translate(1 1)"/>
    </g>
</svg>
