<?xml version="1.0" encoding="UTF-8"?>
<svg width="48px" height="48px" viewBox="0 0 48 48" version="1.1" xmlns="http://www.w3.org/2000/svg" xmlns:xlink="http://www.w3.org/1999/xlink">
    <title>Group 12</title>
    <g id="PROPUESTAS-ICONOS" stroke="none" stroke-width="1" fill="none" fill-rule="evenodd">
        <g id="C-Copy" transform="translate(-533.000000, -278.000000)">
            <g id="Group-2" transform="translate(186.000000, 257.000000)">
                <g id="Group-2-Copy">
                    <g id="Group-10-Copy-5">
                        <g id="Group-6">
                            <g id="Group-3" transform="translate(347.000000, 21.000000)">
                                <g id="Group-12">
                                    <g id="Group-8-Copy-5" stroke="#EEEEEE">
                                        <g id="Group-8-Copy-3">
                                            <g id="Group-4">
                                                <g id="Oval-Copy-4">
                                                    <g id="Group-11">
                                                        <g id="Group-7">
                                                            <path d="M24,0.5 C17.5106542,0.5 11.6356542,3.13032709 7.38299064,7.38299064 C3.13032709,11.6356542 0.5,17.5106542 0.5,24 C0.5,30.4893458 3.13032709,36.3643458 7.38299064,40.6170094 C11.6356542,44.8696729 17.5106542,47.5 24,47.5 C30.4893458,47.5 36.3643458,44.8696729 40.6170094,40.6170094 C44.8696729,36.3643458 47.5,30.4893458 47.5,24 C47.5,17.5106542 44.8696729,11.6356542 40.6170094,7.38299064 C36.3643458,3.13032709 30.4893458,0.5 24,0.5 Z" id="Oval-Copy-3"></path>
                                                        </g>
                                                    </g>
                                                </g>
                                            </g>
                                        </g>
                                    </g>
                                    <g id="Icons-/-03-Pagar-y-Cobrar-/-Tarjeta-de-Débito-/-24px" transform="translate(12.000000, 12.000000)" fill="#3483FA" fill-rule="nonzero">
                                        <path d="M21,3.75 C22.2426407,3.75 23.25,4.75735931 23.25,6 L23.25,18 C23.25,19.2426407 22.2426407,20.25 21,20.25 L3,20.25 C1.75735931,20.25 0.75,19.2426407 0.75,18 L0.75,6 C0.75,4.75735931 1.75735931,3.75 3,3.75 L21,3.75 Z M21,5.25 L3,5.25 C2.58578644,5.25 2.25,5.58578644 2.25,6 L2.25,18 C2.25,18.4142136 2.58578644,18.75 3,18.75 L21,18.75 C21.4142136,18.75 21.75,18.4142136 21.75,18 L21.75,6 C21.75,5.58578644 21.4142136,5.25 21,5.25 Z M8.248,11.25 L8.248,12.75 L3.751,12.75 L3.751,11.25 L8.248,11.25 Z M14.2485,11.25 L14.2485,12.75 L9.7515,12.75 L9.7515,11.25 L14.2485,11.25 Z M20.249,11.25 L20.249,12.75 L15.752,12.75 L15.752,11.25 L20.249,11.25 Z M8.248,8.25 L8.248,9.75 L3.751,9.75 L3.751,8.25 L8.248,8.25 Z" id="🎨Icon-color"></path>
                                    </g>
                                </g>
                            </g>
                        </g>
                    </g>
                </g>
            </g>
        </g>
    </g>
</svg>
