<?xml version="1.0" encoding="UTF-8"?>
<svg width="50px" height="50px" viewBox="0 0 50 50" version="1.1" xmlns="http://www.w3.org/2000/svg" xmlns:xlink="http://www.w3.org/1999/xlink">
    <title>Group 10</title>
    <g id="PROPUESTAS-ICONOS" stroke="none" stroke-width="1" fill="none" fill-rule="evenodd">
        <g id="C-Copy" transform="translate(-859.000000, -277.000000)">
            <g id="Group-2" transform="translate(186.000000, 257.000000)">
                <g id="Group-2-Copy">
                    <g id="Group-10-Copy-5">
                        <g id="Group-6">
                            <g id="Group-9" transform="translate(674.000000, 21.000000)">
                                <g id="Group-10">
                                    <path d="M24,48 C37.254834,48 48,37.254834 48,24 C48,10.745166 37.254834,0 24,0 C10.745166,0 0,10.745166 0,24 C0,37.254834 10.745166,48 24,48 Z" id="Oval" stroke="#EEEEEE"></path>
                                    <g id="Icons-/-03-Pagar-y-Cobrar-/-Efectivo-/-24px" transform="translate(12.000000, 12.000000)" fill="#3483FA" fill-rule="nonzero">
                                        <path d="M23.25,4.4941069 L23.25,19.5058931 L0.75,19.5058931 L0.75,4.4941069 L23.25,4.4941069 Z M21.75,5.9941069 L2.25,5.9941069 L2.25,18.0058931 L21.75,18.0058931 L21.75,5.9941069 Z M12.75,7.303 L12.7515033,8.13266245 C13.5143324,8.27147319 14.1669672,8.59009615 14.6926992,9.076 L13.8236992,10.22 C13.2296992,9.67 12.4376992,9.417 11.6896992,9.417 C11.0186992,9.417 10.6446992,9.714 10.6446992,10.154 C10.6446992,10.627 11.3156992,10.781 12.1076992,10.968 C13.3176992,11.254 14.8576992,11.617 14.8576992,13.278 C14.8576992,14.4166825 14.1687103,15.3177827 12.7504149,15.5646856 L12.75,16.5 L11.25,16.5 L11.2493936,15.5937546 C10.1845325,15.4682222 9.38703253,15.0435 8.8186992,14.466 L9.6656992,13.278 C10.1826992,13.817 10.9856992,14.268 11.9976992,14.268 C12.8556992,14.268 13.2736992,13.872 13.2736992,13.454 C13.2736992,12.915 12.5916992,12.761 11.7886992,12.563 C10.5896992,12.288 9.0496992,11.958 9.0496992,10.286 C9.0496992,9.20896293 9.8713625,8.29454673 11.2504448,8.09388957 L11.25,7.303 L12.75,7.303 Z M18.415292,10.5 C19.2437191,10.5 19.915292,11.1715729 19.915292,12 C19.915292,12.8284271 19.2437191,13.5 18.415292,13.5 C17.5868649,13.5 16.915292,12.8284271 16.915292,12 C16.915292,11.1715729 17.5868649,10.5 18.415292,10.5 Z M5.68460842,10.5 C6.51303554,10.5 7.18460842,11.1715729 7.18460842,12 C7.18460842,12.8284271 6.51303554,13.5 5.68460842,13.5 C4.85618129,13.5 4.18460842,12.8284271 4.18460842,12 C4.18460842,11.1715729 4.85618129,10.5 5.68460842,10.5 Z" id="🎨Icon-color"></path>
                                    </g>
                                </g>
                            </g>
                        </g>
                    </g>
                </g>
            </g>
        </g>
    </g>
</svg>
