<svg xmlns="http://www.w3.org/2000/svg" width="48" height="48" viewBox="0 0 48 48">
    <g fill="none" fill-rule="evenodd">
        <path stroke="#EEE" d="M24 .5C17.51.5 11.636 3.13 7.383 7.383S.5 17.511.5 24c0 6.49 2.63 12.364 6.883 16.617S17.511 47.5 24 47.5c6.49 0 12.364-2.63 16.617-6.883S47.5 30.489 47.5 24c0-6.49-2.63-12.364-6.883-16.617S30.489.5 24 .5z"/>
        <circle cx="24" cy="24" r="12" stroke="#0E82FF"/>
        <path fill="#3483FA" fill-rule="nonzero" d="M24.599 18v5.4h5.4v1.2h-5.4V30h-1.2v-5.4h-5.4v-1.2h5.4V18h1.2z"/>
    </g>
</svg>
